<svg xmlns="http://www.w3.org/2000/svg" style="display:none">
  <symbol id="icon-cart" viewBox="0 0 24 24"><path d="M3 3h2l3.6 7.59-1.35 2.45c-.16.28-.25.61-.25.96 0 1.1.9 2 2 2h12v-2H9.42c-.14 0-.25-.11-.25-.25l.03-.12L10.1 13h7.45c.75 0 1.41-.41 1.75-1.03l3.58-6.49A1 1 0 0 0 22 5H6"></path></symbol>
  <symbol id="icon-heart" viewBox="0 0 24 24"><path d="M12 21.35l-1.45-1.32C5.4 15.36 2 12.28 2 8.5 2 5.42 4.42 3 7.5 3c1.74 0 3.41.81 4.5 2.09C13.09 3.81 14.76 3 16.5 3 19.58 3 22 5.42 22 8.5c0 3.78-3.4 6.86-8.55 11.54L12 21.35z"></path></symbol>
  <symbol id="icon-arrow-left" viewBox="0 0 24 24"><path d="M15 18l-6-6 6-6"></path></symbol>
  <symbol id="icon-arrow-right" viewBox="0 0 24 24"><path d="M9 6l6 6-6 6"></path></symbol>
  <symbol id="icon-home" viewBox="0 0 24 24"><path d="M3 9l9-7 9 7v11a2 2 0 0 1-2 2H5a2 2 0 0 1-2-2z"></path><polyline points="9 22 9 12 15 12 15 22"></polyline></symbol>
  <symbol id="icon-shop" viewBox="0 0 24 24"><path d="M6 2L3 6v14a2 2 0 0 0 2 2h14a2 2 0 0 0 2-2V6l-3-4Z"/><path d="M3 6h18"/></symbol>
  <symbol id="icon-star" viewBox="0 0 24 24"><polygon points="12 2 15.09 8.26 22 9.27 17 14.14 18.18 21.02 12 17.77 5.82 21.02 7 14.14 2 9.27 8.91 8.26 12 2"/></symbol>
  <symbol id="icon-orders" viewBox="0 0 24 24"><rect x="2" y="3" width="20" height="14" rx="2" ry="2"/><line x1="8" y1="21" x2="16" y2="21"/><line x1="12" y1="17" x2="12" y2="21"/></symbol>
  <symbol id="icon-info" viewBox="0 0 24 24"><circle cx="12" cy="12" r="10"/><line x1="12" y1="16" x2="12" y2="12"/><line x1="12" y1="8" x2="12" y2="8"/></symbol>
  <symbol id="icon-ai" viewBox="0 0 24 24"><path d="M12 2L14.5 9L22 12L14.5 15L12 22L9.5 15L2 12L9.5 9L12 2Z"/></symbol>
  <symbol id="icon-sparkle" viewBox="0 0 24 24"><path d="M12 2L14.5 9L22 12L14.5 15L12 22L9.5 15L2 12L9.5 9L12 2Z"/></symbol>
  <symbol id="icon-login" viewBox="0 0 24 24"><path d="M15 12h-9"/><polyline points="12 15 15 12 12 9"/></symbol>
  <symbol id="icon-drawer-cart" viewBox="0 0 24 24"><path d="M3 3h2l3.6 7.59-1.35 2.45c-.16.28-.25.61-.25.96 0 1.1.9 2 2 2h12v-2H9.42c-.14 0-.25-.11-.25-.25l.03-.12L10.1 13h7.45c.75 0 1.41-.41 1.75-1.03l3.58-6.49A1 1 0 0 0 22 5H6"></path></symbol>
  <symbol id="icon-check" viewBox="0 0 24 24"><path d="M20 6L9 17l-5-5"/></symbol>
  <symbol id="icon-lock" viewBox="0 0 24 24"><rect x="3" y="11" width="18" height="11" rx="2" ry="2"/><path d="M7 11V7a5 5 0 0 1 10 0v4"/></symbol>
  <symbol id="icon-user" viewBox="0 0 24 24"><path d="M20 21v-2a4 4 0 0 0-4-4H8a4 4 0 0 0-4 4v2"/><circle cx="12" cy="7" r="4"/></symbol>
  <symbol id="icon-location" viewBox="0 0 24 24"><path d="M12 2C8.13 2 5 5.13 5 9c0 5.25 7 13 7 13s7-7.75 7-13c0-3.87-3.13-7-7-7z"/><circle cx="12" cy="9" r="2.5"/></symbol>
  <symbol id="icon-card" viewBox="0 0 24 24"><rect x="2" y="6" width="20" height="12" rx="2" ry="2"/><line x1="2" y1="10" x2="22" y2="10"/></symbol>
  <symbol id="icon-package" viewBox="0 0 24 24"><path d="M21 10H3"/><path d="M21 6H3"/><path d="M21 14H3"/><path d="M21 18H3"/></symbol>
  <symbol id="icon-cross" viewBox="0 0 24 24"><path d="M18 6L6 18M6 6l12 12"/></symbol>
  <symbol id="icon-error" viewBox="0 0 24 24"><circle cx="12" cy="12" r="10"/><line x1="12" y1="8" x2="12" y2="12"/><line x1="12" y1="16" x2="12" y2="16"/></symbol>
  <symbol id="icon-chevron-left" viewBox="0 0 24 24"><path d="M15 18l-6-6 6-6"/></symbol>
  <symbol id="icon-chevron-right" viewBox="0 0 24 24"><path d="M9 6l6 6-6 6"/></symbol>
  <symbol id="icon-plus" viewBox="0 0 24 24"><line x1="12" y1="5" x2="12" y2="19"/><line x1="5" y1="12" x2="19" y2="12"/></symbol>
  <symbol id="icon-minus" viewBox="0 0 24 24"><line x1="5" y1="12" x2="19" y2="12"/></symbol>
  <symbol id="icon-link" viewBox="0 0 24 24"><path d="M10 13a5 5 0 0 0 7.54.54l3-3a5 5 0 0 0-7.07-7.07l-1.72 1.71"/><path d="M14 11a5 5 0 0 0-7.54-.54l-3 3a5 5 0 0 0 7.07 7.07l1.71-1.71"/></symbol>
  <symbol id="icon-grid" viewBox="0 0 24 24"><rect x="3" y="3" width="7" height="7"/><rect x="14" y="3" width="7" height="7"/><rect x="14" y="14" width="7" height="7"/><rect x="3" y="14" width="7" height="7"/></symbol>
  <symbol id="icon-history" viewBox="0 0 24 24"><path d="M12 8v4l3 3"/><circle cx="12" cy="12" r="9"/></symbol>
</svg>
